name Walk8.mot
datacolumns 19
datarows 22
range 3.35200000 3.37300000
endheader

                time	   L_ground_force_vx	   L_ground_force_vy	   L_ground_force_vz	   L_ground_force_px	   L_ground_force_py	   L_ground_force_pz	   R_ground_force_vx	   R_ground_force_vy	   R_ground_force_vz	   R_ground_force_px	   R_ground_force_py	   R_ground_force_pz	   L_ground_torque_x	   L_ground_torque_y	   L_ground_torque_z	   R_ground_torque_x	   R_ground_torque_y	   R_ground_torque_z	
          3.35200000	          0.00000000	          0.00000000	         -0.00000000	         -0.00000000	          0.00000000	         -0.00000000	          1.78536657	         19.33618482	          1.00716491	          0.07699124	          0.00000000	          0.05894700	          0.00000000	          0.00000000	          0.00000000	          0.00000000	         -1.63049015	          0.00000000	
          3.35300000	          0.00000000	          0.00000000	         -0.00000000	         -0.00000000	          0.00000000	         -0.00000000	          1.29817965	         16.62979833	          0.96315908	          0.07314457	          0.00000000	          0.05588865	          0.00000000	          0.00000000	          0.00000000	          0.00000000	         -1.48543213	          0.00000000	
          3.35400000	          0.00000000	          0.00000000	         -0.00000000	         -0.00000000	          0.00000000	         -0.00000000	          0.84750988	         14.09067995	          0.91925526	          0.06934856	          0.00000000	          0.05287914	          0.00000000	          0.00000000	          0.00000000	          0.00000000	         -1.34709445	          0.00000000	
          3.35500000	          0.00000000	          0.00000000	         -0.00000000	         -0.00000000	          0.00000000	         -0.00000000	          0.43195538	         11.71420259	          0.87561067	          0.06561324	          0.00000000	          0.04992570	          0.00000000	          0.00000000	          0.00000000	          0.00000000	         -1.21542846	          0.00000000	
          3.35600000	          0.00000000	          0.00000000	         -0.00000000	         -0.00000000	          0.00000000	         -0.00000000	          0.05010080	          9.49551799	          0.83236820	          0.06194759	          0.00000000	          0.04703471	          0.00000000	          0.00000000	          0.00000000	          0.00000000	         -1.09036443	          0.00000000	
          3.35700000	          0.00000000	          0.00000000	         -0.00000000	         -0.00000000	          0.00000000	         -0.00000000	         -0.29947623	          7.42959384	          0.78965705	          0.05835951	          0.00000000	          0.04421180	          0.00000000	          0.00000000	          0.00000000	          0.00000000	         -0.97181364	          0.00000000	
          3.35800000	          0.00000000	          0.00000000	         -0.00000000	         -0.00000000	          0.00000000	         -0.00000000	         -0.61819912	          5.51124846	          0.74759346	          0.05485599	          0.00000000	          0.04146183	          0.00000000	          0.00000000	          0.00000000	          0.00000000	         -0.85967027	          0.00000000	
          3.35900000	          0.00000000	          0.00000000	         -0.00000000	         -0.00000000	          0.00000000	         -0.00000000	         -0.90748682	          3.73518307	          0.70628130	          0.05144305	          0.00000000	          0.03878900	          0.00000000	          0.00000000	          0.00000000	          0.00000000	         -0.75381331	          0.00000000	
          3.36000000	          0.00000000	          0.00000000	         -0.00000000	         -0.00000000	          0.00000000	         -0.00000000	         -1.16874891	          2.09601177	          0.66581281	          0.04812591	          0.00000000	          0.03619686	          0.00000000	          0.00000000	          0.00000000	          0.00000000	         -0.65410826	          0.00000000	
          3.36100000	          0.00000000	          0.00000000	         -0.00000000	         -0.00000000	          0.00000000	         -0.00000000	         -1.40338097	          0.58828930	          0.62626916	          0.04490895	          0.00000000	          0.03368833	          0.00000000	          0.00000000	          0.00000000	          0.00000000	         -0.56040882	          0.00000000	
          3.36200000	          0.00000000	         -0.00000000	         -0.00000000	         -0.00000000	          0.00000000	         -0.00000000	         -1.61276058	         -0.79346334	          0.58772115	          0.04179581	          0.00000000	          0.03126578	          0.00000000	          0.00000000	          0.00000000	          0.00000000	         -0.47255845	          0.00000000	
          3.36300000	          0.00000000	         -0.00000000	         -0.00000000	         -0.00000000	          0.00000000	         -0.00000000	         -1.79824362	         -2.05473529	          0.55022980	          0.03878943	          0.00000000	          0.02893106	          0.00000000	          0.00000000	          0.00000000	          0.00000000	         -0.39039179	          0.00000000	
          3.36400000	          0.00000000	         -0.00000000	         -0.00000000	         -0.00000000	          0.00000000	         -0.00000000	         -1.96116098	         -3.20100429	          0.51384692	          0.03589208	          0.00000000	          0.02668553	          0.00000000	          0.00000000	          0.00000000	          0.00000000	         -0.31373609	          0.00000000	
          3.36500000	          0.00000000	         -0.00000000	         -0.00000000	         -0.00000000	          0.00000000	         -0.00000000	         -2.10281565	         -4.23771687	          0.47861576	          0.03310545	          0.00000000	          0.02453008	          0.00000000	          0.00000000	          0.00000000	          0.00000000	         -0.24241243	          0.00000000	
          3.36600000	         -0.00000000	         -0.00000000	         -0.00000000	         -0.00000000	          0.00000000	         -0.00000000	         -2.22448020	         -5.17027048	          0.44457153	          0.03043065	          0.00000000	          0.02246521	          0.00000000	          0.00000000	          0.00000000	          0.00000000	         -0.17623700	          0.00000000	
          3.36700000	         -0.00000000	         -0.00000000	         -0.00000000	         -0.00000000	          0.00000000	         -0.00000000	         -2.32739453	         -6.00399725	          0.41174194	          0.02786829	          0.00000000	          0.02049100	          0.00000000	          0.00000000	          0.00000000	          0.00000000	         -0.11502211	          0.00000000	
          3.36800000	         -0.00000000	         -0.00000000	         -0.00000000	         -0.00000000	          0.00000000	         -0.00000000	         -2.41276397	         -6.74414939	          0.38014778	          0.02541848	          0.00000000	          0.01860723	          0.00000000	          0.00000000	          0.00000000	          0.00000000	         -0.05857732	          0.00000000	
          3.36900000	         -0.00000000	         -0.00000000	         -0.00000000	         -0.00000000	          0.00000000	         -0.00000000	         -2.48175768	         -7.39588614	          0.34980340	          0.02308091	          0.00000000	          0.01681330	          0.00000000	          0.00000000	          0.00000000	          0.00000000	         -0.00671036	          0.00000000	
          3.37000000	         -0.00000000	         -0.00000000	         -0.00000000	         -0.00000000	          0.00000000	         -0.00000000	         -2.53550727	         -7.96426218	          0.32071720	          0.02085488	          0.00000000	          0.01510837	          0.00000000	          0.00000000	          0.00000000	          0.00000000	          0.04077201	          0.00000000	
          3.37100000	         -0.00000000	         -0.00000000	         -0.00000000	         -0.00000000	          0.00000000	         -0.00000000	         -2.57510575	         -8.45421744	          0.29289212	          0.01873930	          0.00000000	          0.01349131	          0.00000000	          0.00000000	          0.00000000	          0.00000000	          0.08406317	          0.00000000	
          3.37200000	         -0.00000000	         -0.00000000	         -0.00000000	         -0.00000000	          0.00000000	         -0.00000000	         -2.60160667	         -8.87056813	          0.26632607	          0.01673279	          0.00000000	          0.01196076	          0.00000000	          0.00000000	          0.00000000	          0.00000000	          0.12335588	          0.00000000	
          3.37300000	         -0.00000000	         -0.00000000	         -0.00000000	         -0.00000000	          0.00000000	         -0.00000000	         -2.61602352	         -9.21799914	          0.24101239	          0.01483366	          0.00000000	          0.01051514	          0.00000000	          0.00000000	          0.00000000	          0.00000000	          0.15884163	          0.00000000	
